<svg width="128" height="128" viewBox="0 0 1024 1024"
     version="1.1" xmlns="http://www.w3.org/2000/svg">
    <path d="M701.796538 181.154909c20.200727 51.2 23.272727 135.726545-18.618182 176.407273C614.94272 59.205818 444.772538 0.930909 444.772538 0.930909c20.293818 151.645091-71.121455 317.626182-160.861091 442.740364-2.978909-59.950545-6.237091-100.538182-35.560727-162.350546C242.20672 392.564364 168.013265 480.814545 146.416175 592.058182c-26.251636 153.506909 21.597091 261.12 204.055272 379.438545-57.250909-135.726545-26.251636-213.457455 18.618182-283.927272 47.941818-81.082182 60.509091-158.813091 60.509091-158.813091s38.539636 54.644364 23.272727 141.032727c64.791273-84.619636 77.358545-220.625455 68.142546-269.963636 148.386909 118.225455 214.853818 379.438545 128.372363 568.133818 457.634909-298.077091 112.64-741.003636 52.410182-786.711273"
          fill="#FF5E00"/>
</svg>