<svg width="128" height="128" viewBox="0 0 1024 1024"
     version="1.1" xmlns="http://www.w3.org/2000/svg">
    <path d="M384 479.573333H63.146667c-27.306667 0-49.493333-22.186667-49.493334-49.493333V109.226667c0-27.306667 22.186667-49.493333 49.493334-49.493334h320.853333c27.306667 0 49.493333 22.186667 49.493333 49.493334v320.853333c1.706667 27.306667-22.186667 49.493333-49.493333 49.493333zM384 1006.933333H63.146667C35.84 1006.933333 13.653333 984.746667 13.653333 957.44V636.586667c0-27.306667 22.186667-49.493333 49.493334-49.493334h320.853333c27.306667 0 49.493333 22.186667 49.493333 49.493334v320.853333c1.706667 27.306667-22.186667 49.493333-49.493333 49.493333z"
          fill="#18CEB4"/>
    <path d="M986.453333 303.786667L786.773333 503.466667c-18.773333 18.773333-51.2 18.773333-69.973333 0L517.12 303.786667c-18.773333-18.773333-18.773333-51.2 0-69.973334L716.8 34.133333c18.773333-18.773333 51.2-18.773333 69.973333 0l199.68 199.68c18.773333 20.48 18.773333 51.2 0 69.973334z"
          fill="#18CEB4" opacity=".5"/>
    <path d="M913.066667 1006.933333H592.213333c-27.306667 0-49.493333-22.186667-49.493333-49.493333V636.586667c0-27.306667 22.186667-49.493333 49.493333-49.493334h320.853334c27.306667 0 49.493333 22.186667 49.493333 49.493334v320.853333c0 27.306667-22.186667 49.493333-49.493333 49.493333z"
          fill="#18CEB4"/>
</svg>